# xmcd
#
# Track frame offsets: 
#        150
#        15122
#        30414
#        54059
#        70261
#        90161
#        101452
#        119514
#        136939
#        154052
#
# Disc length: 2267 seconds
#
# Revision: 0
# Processed by: cddbd v1.5.1PL2 Copyright (c) Steve Scherf et al.
# Submitted via: ExactAudioCopy v0.95b1
#
DISCID=6608d90a
DTITLE=Greg Bicknell - Influences
DYEAR=2000
DGENRE=Ballad
TTITLE0=Don't Get me Started
TTITLE1=The Dance
TTITLE2=Jesse
TTITLE3=Operator
TTITLE4=Turn The Page
TTITLE5=Jailhouse Rock
TTITLE6=Run for the Roses
TTITLE7=Little Rock
TTITLE8=Wine Into Water
TTITLE9=Love Songs To You
EXTD=
EXTT0=
EXTT1=
EXTT2=
EXTT3=
EXTT4=
EXTT5=
EXTT6=
EXTT7=
EXTT8=
EXTT9=
PLAYORDER=
